<?xml version="1.0" encoding="iso-8859-1"?>
<!-- Generator: Adobe Illustrator 19.0.0, SVG Export Plug-In . SVG Version: 6.00 Build 0)  -->
<svg version="1.1" id="Capa_1" xmlns="http://www.w3.org/2000/svg" xmlns:xlink="http://www.w3.org/1999/xlink" x="0px" y="0px"
	 viewBox="0 0 512 512" style="enable-background:new 0 0 512 512;" xml:space="preserve">
<g>
	<g>
		<g>
			<polygon points="32,357.664 32,512 64,512 64,381.248 84.688,374.864 75.232,344.304 			"/>
			
				<rect x="109.796" y="329.406" transform="matrix(-0.2955 -0.9553 0.9553 -0.2955 -167.025 567.6417)" width="31.984" height="32"/>
			<path d="M437.264,344.448l41.92-126.4L448.816,208l-10.08,30.4l-30.4-10.032l-10.032,30.4l30.32,10.032l-21.968,66.272
				L320,308.208V280.56l48-32V208h32v-96c0.004-7.098-0.665-14.181-2-21.152l-31.424,6.032c0.942,4.985,1.418,10.047,1.424,15.12v64
				h-16c-8.837,0-16-7.163-16-16v-16H176v16c0,8.837-7.163,16-16,16h-16v-64c0.053-44.161,35.839-79.947,80-80h64
				c10.187-0.017,20.284,1.917,29.744,5.696L329.6,8c-13.226-5.308-27.349-8.024-41.6-8h-64c-61.827,0.071-111.929,50.173-112,112
				v96h32v40.56l48,32v27.648l-25.04,7.728l9.44,30.56l47.6-14.704V263.44l-48-32v-26.256c13.639-4.845,24.382-15.558,29.264-29.184
				h101.472c4.883,13.626,15.625,24.339,29.264,29.184v26.256l-48,32v50l-85.424,175.568l28.8,14L311.2,338.96l30.768,9.504
				L273.6,489.008l28.8,14l70.496-144.976L448,381.248V512h32V357.664L437.264,344.448z"/>
			<rect x="112" y="432" width="32" height="80"/>
			<rect x="368" y="432" width="32" height="80"/>
			<path d="M357.296,72l27.712-16c-6.236-10.799-14.234-20.479-23.664-28.64l-20.96,24.16C347.119,57.361,352.834,64.282,357.296,72
				z"/>
		</g>
	</g>
</g>
<g>
</g>
<g>
</g>
<g>
</g>
<g>
</g>
<g>
</g>
<g>
</g>
<g>
</g>
<g>
</g>
<g>
</g>
<g>
</g>
<g>
</g>
<g>
</g>
<g>
</g>
<g>
</g>
<g>
</g>
</svg>
